<?xml version="1.0" standalone="no"?>
<!DOCTYPE svg PUBLIC "-//W3C//DTD SVG 20010904//EN"
 "http://www.w3.org/TR/2001/REC-SVG-20010904/DTD/svg10.dtd">
<svg version="1.0" xmlns="http://www.w3.org/2000/svg"
 width="260.000000pt" height="260.000000pt" viewBox="0 0 260.000000 260.000000"
 preserveAspectRatio="xMidYMid meet">
<metadata>
Created by potrace 1.11, written by Peter Selinger 2001-2013
</metadata>
<g transform="translate(0.000000,260.000000) scale(0.100000,-0.100000)"
fill="#000000" stroke="none">
<path d="M1220 2569 c-130 -22 -260 -120 -319 -241 -74 -151 -63 -313 31 -454
l28 -42 -293 -129 -292 -130 -148 -194 c-81 -107 -155 -207 -163 -222 -25 -46
-3 -65 150 -131 l136 -59 0 -249 c0 -141 4 -257 10 -267 5 -11 194 -100 475
-225 l466 -208 456 203 c251 112 465 211 475 221 16 16 18 41 18 271 l0 254
136 59 c153 66 175 85 150 131 -8 15 -82 115 -163 222 l-148 194 -292 129
-292 130 33 52 c54 84 70 139 69 246 0 113 -21 178 -87 267 -96 131 -271 200
-436 172z m238 -133 c64 -33 125 -99 159 -171 22 -49 27 -74 27 -135 -1 -104
-30 -176 -100 -246 l-54 -54 -70 0 -70 0 0 88 0 88 50 49 c53 52 61 77 33 107
-24 27 -48 22 -93 -18 l-40 -36 -40 36 c-44 40 -64 44 -92 19 -30 -27 -21 -55
32 -108 l50 -49 0 -88 0 -88 -70 0 -70 0 -54 54 c-70 70 -99 142 -100 246 0
91 32 171 97 238 103 107 273 135 405 68z m-8 -740 c0 -59 -16 -66 -150 -66
-134 0 -150 7 -150 66 l0 34 150 0 150 0 0 -34z m-50 -176 c0 -41 -54 -90
-100 -90 -46 0 -100 49 -100 90 0 6 43 10 100 10 57 0 100 -4 100 -10z m-580
-231 c212 -94 388 -174 392 -177 8 -8 -218 -312 -232 -312 -5 0 -173 73 -372
161 -200 89 -378 168 -396 175 l-32 14 116 155 c64 85 122 155 128 155 6 0
185 -77 396 -171z m1484 16 l116 -155 -32 -14 c-18 -7 -197 -86 -397 -175
-200 -89 -369 -160 -376 -158 -13 6 -231 294 -229 305 2 9 764 350 785 351 10
1 62 -60 133 -154z"/>
<path d="M467 2452 c-39 -43 -20 -62 122 -126 118 -52 157 -58 170 -23 16 42
-2 58 -125 113 -65 30 -126 54 -135 54 -9 0 -23 -8 -32 -18z"/>
<path d="M1966 2417 c-65 -29 -122 -60 -127 -69 -6 -10 -5 -27 1 -42 14 -38
49 -34 171 20 113 51 139 68 139 94 0 20 -31 50 -51 50 -8 0 -67 -24 -133 -53z"/>
<path d="M600 1999 c-63 -27 -124 -58 -135 -69 -18 -19 -19 -22 -5 -48 9 -15
23 -28 32 -30 9 -2 67 20 129 48 103 45 149 77 149 101 0 11 -37 49 -47 49 -5
0 -60 -23 -123 -51z"/>
<path d="M1851 2031 c-26 -26 -26 -33 -3 -60 20 -25 237 -124 260 -119 9 2 23
15 32 30 14 26 13 29 -5 47 -18 17 -188 98 -244 116 -13 4 -27 -1 -40 -14z"/>
</g>
</svg>
